#!OML:ASF H:\ManfredETheater\Project 1\Capture day 1\Session 1\subject.ASF
:FULLY-SPECIFIED
:DEGREES
185
root -2.58314 15.8844 -30.7349 -154.469 -32.994 165.247
lowerback 15.7075 -0.426582 -2.93656
upperback -2.44842 -0.933211 2.12646
thorax -11.4767 -0.164608 4.24727
lowerneck -16.1791 -4.94857 -4.84637
upperneck -1.92911 -6.16152 -2.3734
head 2.22236 -3.3768 -0.362207
rclavicle 4.6118e-014 -1.59028e-015
rhumerus -44.7254 21.3565 -79.38
rradius 95.3775
rwrist 3.17453
rhand -32.3876 5.30538
rfingers 7.12502
rthumb -5.62297 -24.6
lclavicle 4.6118e-014 -1.59028e-015
lhumerus -61.061 -33.5155 93.9418
lradius 117.441
lwrist 12.9455
lhand -16.4975 -13.9168
lfingers 7.12502
lthumb 9.72017 15.8389
rfemur -67.8697 -14.6565 6.30028
rtibia 61.7059
rfoot -12.6155 -11.9111
rtoes -36.4591
lfemur 9.12183 -17.7364 -25.0546
ltibia 32.4146
lfoot 34.8511 -1.76045
ltoes 59.5504
186
root -2.73371 15.8869 -31.1201 -154.483 -31.5378 165.527
lowerback 15.7281 -0.271888 -2.77626
upperback -2.41791 -0.697553 2.11314
thorax -11.478 -0.0655271 4.08166
lowerneck -16.2031 -4.56955 -4.59466
upperneck -2.23275 -5.74103 -2.79925
head 2.09603 -3.19301 -0.506533
rclavicle 6.91771e-014 6.36111e-014
rhumerus -43.4669 21.2589 -79.2517
rradius 92.6265
rwrist 3.04562
rhand -31.5454 4.45983
rfingers 7.12502
rthumb -4.80975 -25.4656
lclavicle 6.91771e-014 6.36111e-014
lhumerus -63.4303 -31.3761 95.2488
lradius 114.224
lwrist 15.0402
lhand -17.5098 -13.7657
lfingers 7.12502
lthumb 8.74343 16.0332
rfemur -67.8035 -13.5351 6.37298
rtibia 63.0957
rfoot -12.5734 -11.1727
rtoes -34.6104
lfemur 8.5736 -17.7239 -26.2193
ltibia 34.5077
lfoot 34.9881 -1.15226
ltoes 58.309
187
root -2.87832 15.8854 -31.4986 -154.675 -30.0577 165.94
lowerback 15.9257 -0.0795688 -2.59485
upperback -2.32055 -0.41055 2.11988
thorax -11.5107 0.0562689 3.91583
lowerneck -16.2241 -4.20225 -4.34318
upperneck -2.65011 -5.35292 -3.20098
head 1.93512 -3.02555 -0.643727
rclavicle -4.29375e-014 2.22639e-014
rhumerus -41.9105 21.0958 -79.1414
rradius 89.7352
rwrist 2.57463
rhand -30.7096 3.55852
rfingers 7.12502
rthumb -4.00269 -26.3836
lclavicle -4.29375e-014 2.22639e-014
lhumerus -65.0157 -29.014 96.0929
lradius 110.665
lwrist 16.9434
lhand -18.5134 -13.5783
lfingers 7.12502
lthumb 7.77483 16.2588
rfemur -67.6166 -12.3088 6.50483
rtibia 64.603
rfoot -12.9688 -10.6195
rtoes -32.3349
lfemur 7.75281 -17.22 -27.1613
ltibia 37.2111
lfoot 34.5712 -0.165209
ltoes 57.1408
188
root -3.01791 15.8827 -31.8722 -155.049 -28.5962 166.527
lowerback 16.2743 0.139795 -2.34052
upperback -2.16013 -0.0735304 2.16615
thorax -11.5626 0.196558 3.73954
lowerneck -16.2291 -3.8523 -4.09801
upperneck -3.17447 -5.0048 -3.58173
head 1.73963 -2.87816 -0.773998
rclavicle 1.59028e-014 1.43125e-014
rhumerus -40.0699 20.8984 -79.048
rradius 86.7585
rwrist 1.7126
rhand -29.9769 2.63418
rfingers 7.12502
rthumb -3.29511 -27.3201
lclavicle 1.59028e-014 1.43125e-014
lhumerus -65.8805 -26.5233 96.5448
lradius 106.795
lwrist 18.6063
lhand -19.5315 -13.3079
lfingers 7.12502
lthumb 6.79205 16.5632
rfemur -67.2421 -11.0058 6.78946
rtibia 66.0623
rfoot -13.8323 -10.336
rtoes -29.8672
lfemur 6.70545 -16.3311 -27.8239
ltibia 40.3763
lfoot 33.7679 1.09319
ltoes 56.0902
189
root -3.15358 15.8835 -32.2439 -155.571 -27.202 167.292
lowerback 16.7301 0.373118 -1.98433
upperback -1.94997 0.304169 2.26185
thorax -11.6207 0.348711 3.54722
lowerneck -16.2249 -3.52645 -3.87774
upperneck -3.76846 -4.6987 -3.92769
head 1.52414 -2.75118 -0.890805
rclavicle 9.54166e-015 3.65764e-014
rhumerus -37.995 20.6951 -78.9745
rradius 83.7821
rwrist 0.508051
rhand -29.4417 1.75427
rfingers 7.12502
rthumb -2.77831 -28.2074
lclavicle 9.54166e-015 3.65764e-014
lhumerus -66.0891 -23.9906 96.6872
lradius 102.611
lwrist 20.027
lhand -20.5695 -12.9486
lfingers 7.12502
lthumb 5.79003 16.9523
rfemur -66.6247 -9.67126 7.27448
rtibia 67.3314
rfoot -14.9492 -10.2982
rtoes -27.9027
lfemur 5.45222 -15.1726 -28.1732
ltibia 43.8689
lfoot 32.6959 2.37682
ltoes 55.3647
190
root -3.28654 15.8921 -32.6168 -156.178 -25.9356 168.219
lowerback 17.2269 0.602859 -1.49254
upperback -1.71042 0.708362 2.4097
thorax -11.6656 0.503518 3.3245
lowerneck -16.2365 -3.22415 -3.66346
upperneck -4.38224 -4.43149 -4.27615
head 1.30818 -2.64507 -1.01069
rclavicle -1.82882e-014 2.70347e-014
rhumerus -35.7594 20.4883 -78.9156
rradius 80.9232
rwrist -0.841149
rhand -29.1205 0.980526
rfingers 7.12502
rthumb -2.46805 -28.9849
lclavicle -1.82882e-014 2.70347e-014
lhumerus -65.7108 -21.5091 96.5992
lradius 98.1072
lwrist 21.241
lhand -21.6286 -12.5379
lfingers 7.12502
lthumb 4.76741 17.3885
rfemur -65.7479 -8.37801 7.98242
rtibia 68.3381
rfoot -16.2511 -10.4716
rtoes -27.0628
lfemur 3.97472 -13.8556 -28.1804
ltibia 47.5851
lfoot 31.4914 3.37485
ltoes 54.9658
191
root -3.41716 15.9094 -32.9927 -156.79 -24.8403 169.257
lowerback 17.6999 0.814883 -0.876598
upperback -1.47002 1.11936 2.6017
thorax -11.6887 0.652758 3.07404
lowerneck -16.2786 -2.94367 -3.45403
upperneck -4.96621 -4.1943 -4.63619
head 1.11035 -2.55563 -1.13748
rclavicle -4.37326e-014 -2.22639e-014
rhumerus -33.4821 20.2814 -78.8828
rradius 78.3305
rwrist -2.06165
rhand -28.9761 0.355489
rfingers 7.12502
rthumb -2.32864 -29.6115
lclavicle -4.37326e-014 -2.22639e-014
lhumerus -64.8431 -19.1546 96.3556
lradius 93.2951
lwrist 22.3064
lhand -22.7317 -12.1418
lfingers 7.12502
lthumb 3.70216 17.8058
rfemur -64.6435 -7.20672 8.89619
rtibia 69.0576
rfoot -17.7083 -10.8039
rtoes -27.1176
lfemur 2.23852 -12.4745 -27.8622
ltibia 51.4546
lfoot 30.2661 3.91041
ltoes 54.9
192
root -3.5459 15.934 -33.3726 -157.334 -23.9546 170.312
lowerback 18.1015 0.992537 -0.182723
upperback -1.25105 1.50483 2.81798
thorax -11.685 0.784673 2.81011
lowerneck -16.3438 -2.68372 -3.24697
upperneck -5.49008 -3.98113 -5.01849
head 0.938692 -2.47948 -1.27507
rclavicle -2.3059e-014 -6.36111e-014
rhumerus -31.2986 20.0786 -78.8985
rradius 76.1723
rwrist -2.93418
rhand -28.9388 -0.0818691
rfingers 7.12502
rthumb -2.2926 -30.0493
lclavicle -2.3059e-014 -6.36111e-014
lhumerus -63.5929 -16.972 96.0043
lradius 88.1937
lwrist 23.2717
lhand -23.829 -11.9532
lfingers 7.12502
lthumb 2.64253 18.0102
rfemur -63.3521 -6.2538 9.93419
rtibia 69.5297
rfoot -19.2203 -11.2454
rtoes -27.7252
lfemur 0.242387 -11.1209 -27.3024
ltibia 55.4207
lfoot 29.076 3.94574
ltoes 55.0304
